HIERARCHY
ROOT Hips
{
	OFFSET	0.000000	0.000000	0.000000
	CHANNELS 6 Xposition Yposition Zposition Zrotation Xrotation Yrotation
	JOINT LeftUpLeg
	{
		OFFSET	12.830505	-7.049846	-1.643436
		CHANNELS 3 Zrotation Xrotation Yrotation
		JOINT LeftLeg
		{
			OFFSET	0.620834	-39.957500	-1.919341
			CHANNELS 3 Zrotation Xrotation Yrotation
			JOINT LeftFoot
			{
				OFFSET	-0.413890	-44.704761	-3.870325
				CHANNELS 3 Zrotation Xrotation Yrotation
				JOINT LeftFootHeel
				{
					OFFSET	0.164738	-8.918193	-6.555130
					CHANNELS 3 Zrotation Xrotation Yrotation
					End Site
					{
						OFFSET	-0.604053	0.000000	21.044330
					}
				}
			}
		}
	}
	JOINT RightUpLeg
	{
		OFFSET	-12.830505	-7.049846	-1.643436
		CHANNELS 3 Zrotation Xrotation Yrotation
		JOINT RightLeg
		{
			OFFSET	-0.620834	-39.957500	-1.919341
			CHANNELS 3 Zrotation Xrotation Yrotation
			JOINT RightFoot
			{
				OFFSET	0.413890	-44.704761	-3.870325
				CHANNELS 3 Zrotation Xrotation Yrotation
				JOINT RightFootHeel
				{
					OFFSET	-0.164738	-8.918193	-6.555130
					CHANNELS 3 Zrotation Xrotation Yrotation
					End Site
					{
						OFFSET	0.604053	0.000000	21.044330
					}
				}
			}
		}
	}
	JOINT Spine
	{
		OFFSET	0.000000	12.498170	1.820647
		CHANNELS 3 Zrotation Xrotation Yrotation
		JOINT Spine1
		{
			OFFSET	0.000000	7.620000	0.000000
			CHANNELS 3 Zrotation Xrotation Yrotation
			JOINT LeftShoulder
			{
				OFFSET	9.167800	29.136339	-5.551221
				CHANNELS 3 Zrotation Xrotation Yrotation
				JOINT LeftArm
				{
					OFFSET	12.133453	-3.880866	1.461963
					CHANNELS 3 Zrotation Xrotation Yrotation
					JOINT LeftForeArm
					{
						OFFSET	2.507115	-31.664908	-1.069404
						CHANNELS 3 Zrotation Xrotation Yrotation
						JOINT LeftHand
						{
							OFFSET	4.116172	-24.512624	5.009439
							CHANNELS 3 Zrotation Xrotation Yrotation
							End Site
							{
								OFFSET	-0.213136	-10.931856	2.182134
							}
						}
					}
				}
			}
			JOINT RightShoulder
			{
				OFFSET	-9.167800	29.136339	-5.551221
				CHANNELS 3 Zrotation Xrotation Yrotation
				JOINT RightArm
				{
					OFFSET	-12.133453	-3.880866	1.461963
					CHANNELS 3 Zrotation Xrotation Yrotation
					JOINT RightForeArm
					{
						OFFSET	-2.507115	-31.664908	-1.069404
						CHANNELS 3 Zrotation Xrotation Yrotation
						JOINT RightHand
						{
							OFFSET	-4.116172	-24.512624	5.009439
							CHANNELS 3 Zrotation Xrotation Yrotation
							End Site
							{
								OFFSET	0.213136	-10.931856	2.182134
							}
						}
					}
				}
			}
			JOINT Neck
			{
				OFFSET	0.000000	32.926272	-3.635654
				CHANNELS 3 Zrotation Xrotation Yrotation
				JOINT Head
				{
					OFFSET	0.000000	12.481178	4.646143
					CHANNELS 3 Zrotation Xrotation Yrotation
					End Site
					{
						OFFSET	0.000000	17.715204	-2.222063
					}
				}
			}
		}
	}
}
MOTION
Frames:     11
Frame Time: 0.016667
0.355349	98.544042	1.426469	-6.073322	7.366164	46.891300	13.867981	-28.111265	22.343739	5.378735	31.612528	-5.665020	-11.673578	-6.513029	-8.089586	0.	0.	0.	-20.678110	-26.858137	-19.508959	0.427813	33.145985	0.789949	7.421911	-7.642022	-6.469203	0.	0.	0.	0.000000	-0.000001	-0.000001	-8.006517	24.964943	6.738687	17.625214	-4.388937	4.618974	-34.355881	-47.054794	-35.002052	-104.988205	-35.252033	-76.615387	-1.706398	-4.013884	-0.484384	-10.522414	-3.087052	0.790744	-39.058701	-13.185313	-44.031120	-27.472271	-124.088150	-37.719707	-17.423269	2.938074	14.162625	-3.608797	1.700099	-17.722956	20.393013	-9.801277	-13.102665	
0.290816	98.703092	1.708414	-6.127147	7.232365	47.266048	13.934813	-27.748049	22.260637	5.435549	30.897017	-5.580268	-11.916420	-5.906200	-8.446530	0.	0.	0.	-20.439747	-26.470459	-19.745731	0.274374	32.972881	1.030410	7.361922	-7.742183	-6.751208	0.	0.	0.	-0.000000	-0.000001	-0.000005	-8.470514	24.652111	6.284135	17.703058	-4.104741	4.643402	-33.505600	-47.062370	-34.583599	-104.680969	-35.290169	-76.494049	-1.784191	-3.991793	-0.601064	-10.272232	-2.449269	1.179891	-39.410599	-12.270548	-43.365692	-31.302818	-125.532280	-42.569786	-19.586939	3.064117	12.196762	-3.320750	2.233462	-17.257036	20.774761	-9.762198	-12.886127	
0.411506	98.871735	1.990502	-6.184579	7.206693	47.557034	13.841472	-27.281284	21.971779	5.285493	30.103748	-5.304304	-12.017744	-5.476260	-8.659174	0.	0.	0.	-20.296860	-26.214085	-19.914948	0.147181	32.728748	1.223743	7.347085	-7.756341	-6.987837	0.	0.	0.	-0.000000	-0.000000	-0.000001	-9.098513	24.202400	6.018130	18.103642	-3.671780	4.600387	-32.963387	-47.070503	-34.279434	-104.462219	-35.299198	-76.357071	-1.816694	-4.001519	-0.606465	-9.809072	-2.147810	1.506889	-39.858311	-11.416797	-42.948761	-37.562572	-128.374908	-49.520309	-21.562262	3.515804	9.346877	-2.799329	2.693006	-16.956953	21.024101	-9.669882	-12.726439	
0.267704	99.204447	2.272309	-6.664732	7.569352	49.090199	13.009886	-27.537474	20.335356	5.348236	28.219095	-4.418424	-12.322602	-3.800348	-9.203118	0.	0.	0.	-19.760429	-25.089474	-20.039888	0.023357	30.925144	0.587518	7.428058	-7.464608	-7.566291	0.	0.	0.	0.000001	0.000001	0.000002	-9.258896	23.400902	4.756367	17.779495	-3.112135	3.828089	-31.336153	-47.039795	-33.399998	-103.563301	-35.241920	-75.452423	-1.823989	-4.165567	-0.275109	-9.947239	-2.213250	1.371890	-43.649948	-7.827003	-40.147186	-36.821514	-129.620804	-50.744171	-23.174368	4.639645	8.636878	-2.399167	3.148358	-17.178431	21.630867	-9.296508	-11.697302	
0.042069	99.565084	2.340779	-6.861312	7.716998	49.561623	12.495732	-27.197254	19.804184	5.521446	26.386766	-3.910131	-12.445091	-2.352601	-9.472683	0.	0.	0.	-19.253353	-24.278774	-19.324547	0.161329	29.406137	-0.378650	7.584805	-6.939854	-7.696969	0.	0.	0.	0.000000	0.000000	0.000006	-9.894669	23.166624	5.023568	17.920696	-2.686259	2.984275	-30.372271	-47.312813	-32.924225	-102.734444	-35.133141	-74.496986	-1.714499	-4.402412	0.173952	-9.867781	-2.709754	0.938361	-49.047626	-5.900937	-35.766228	-34.764408	-127.076698	-45.816345	-23.790476	5.413199	12.088383	-1.995909	3.069398	-17.719593	21.998325	-8.693287	-11.772452	
-0.219294	100.053572	2.467754	-7.603100	8.209174	50.978703	11.639462	-27.382704	18.579056	5.612503	23.639963	-3.552516	-12.436854	-0.069038	-9.454046	0.	0.	0.	-19.103111	-23.732187	-19.651997	0.216892	27.293142	-1.932027	7.898888	-5.751997	-7.335900	0.	0.	0.	-0.000000	-0.000000	-0.000002	-10.247257	22.221975	5.621833	18.334175	-1.576590	0.468136	-29.193968	-48.734962	-32.204300	-101.336868	-34.854233	-73.092758	-1.714182	-4.659502	0.666511	-10.456206	-3.685125	0.045404	-55.831421	-3.498953	-34.068398	-35.958370	-121.863815	-44.502144	-21.397541	6.935066	18.239435	-1.648952	3.346074	-19.105038	22.352219	-8.061032	-11.747034	
-0.219294	100.053572	2.467754	-7.603100	8.209174	50.978703	11.639462	-27.382704	18.579056	5.612503	23.639963	-3.552516	-12.436854	-0.069038	-9.454046	0.	0.	0.	-19.103111	-23.732187	-19.651997	0.216892	27.293142	-1.932027	7.898888	-5.751997	-7.335900	0.	0.	0.	-0.000000	-0.000000	-0.000002	-11.131184	21.823450	7.590484	19.145300	-1.816961	-1.179840	-29.193964	-48.734959	-32.204304	-101.336876	-34.854233	-73.092751	-1.714180	-4.659505	0.666507	-11.273329	-4.451730	-0.629336	-59.815620	-2.099772	-34.012981	-52.893047	-111.277672	-57.695004	-20.325186	6.134293	11.111409	-1.515713	4.287621	-20.404142	23.316214	-8.424873	-11.896100	
-0.631863	100.547098	2.384869	-8.092245	9.051215	52.066872	10.629352	-27.441963	16.678663	4.758551	20.714462	-1.931518	-12.085605	2.857928	-9.352991	0.	0.	0.	-18.639174	-22.975140	-18.138865	0.406640	23.927660	-3.734635	8.011186	-3.889808	-8.218312	0.	0.	0.	-0.000000	-0.000001	0.000001	-12.184711	20.961872	8.342651	19.315977	-0.671510	-2.159537	-27.853220	-50.652191	-32.065186	-100.231071	-34.368904	-72.741096	-1.912851	-4.830328	-0.251550	-12.068569	-5.170005	-1.109646	-63.670887	-2.308803	-35.445255	84.567009	-75.290390	76.183167	-21.713821	6.751718	10.170181	-1.224159	5.071520	-21.261473	24.584383	-8.080585	-10.521927	
-0.972309	100.824629	2.041134	-7.892634	9.496826	52.128201	10.179733	-27.150467	15.712734	4.010674	19.614548	-0.329259	-11.817410	4.350739	-9.703302	0.	0.	0.	-19.037703	-23.037062	-17.971853	0.403475	23.088388	-3.477566	7.972463	-3.053310	-8.837564	0.	0.	0.	0.000001	-0.000000	0.000004	-13.726782	20.816816	10.022998	19.923229	-0.689057	-2.700778	-27.909081	-51.424179	-32.559906	-99.597832	-34.072510	-72.496109	-1.907259	-4.924985	-0.590391	-12.285064	-6.245732	-0.670424	-69.325783	-4.367533	-36.742054	26.248640	-65.605843	13.754869	-19.941668	7.795853	8.846325	-0.809541	5.704604	-21.586613	25.333609	-8.122217	-10.899758	
-1.422045	101.081290	1.819782	-7.544261	9.961206	51.890610	9.763145	-26.845549	15.111592	3.380413	18.863529	1.102087	-11.596683	5.727476	-10.149045	0.	0.	0.	-19.404032	-23.306263	-17.443943	0.398807	22.648067	-4.077010	7.921732	-2.326324	-8.657259	0.	0.	0.	-0.000000	0.000000	-0.000001	-15.226249	20.880884	11.812198	20.133936	-1.112902	-2.856030	-28.393744	-51.932407	-33.600479	-98.795250	-33.842163	-71.650200	-1.989039	-5.064846	-0.315129	-12.379305	-8.038491	0.351239	-76.284264	-8.846535	-36.650421	6.114447	-39.132648	-9.954670	-13.366524	9.513005	6.389528	-0.864638	6.291162	-21.949392	26.028286	-8.147018	-11.046774	
-1.909717	101.255233	1.669600	-7.145646	10.316854	51.551140	9.363655	-26.676971	15.008281	3.149835	18.569061	1.558848	-11.558154	6.797201	-10.313436	0.	0.	0.	-19.771837	-23.709150	-17.185434	0.351520	22.678682	-4.815189	7.817258	-1.815654	-7.962589	0.	0.	0.	-0.000000	0.000000	-0.000001	-16.315315	20.800091	14.508012	19.883579	-1.657378	-3.719354	-29.053856	-52.354908	-35.378059	-98.167892	-34.051453	-70.711105	-2.160006	-5.216310	0.331123	-12.821349	-10.193575	1.131930	-83.958977	-13.033066	-37.137684	5.537195	-17.312441	-13.697801	-18.494640	19.057579	6.652563	-1.408116	7.207196	-23.057806	26.499119	-7.826068	-11.872181	
